<svg xmlns="http://www.w3.org/2000/svg" viewBox="0 0 32 32">
    <g>
        <!-- Bitcoin circle with improved outline technique -->
        <circle cx="16" cy="16" r="15.5" fill="#F7931A" />
        <circle cx="16" cy="16" r="15.7" fill="none" stroke="rgba(0, 0, 0, 0.5)" stroke-width="0.6" />

        <!-- Bitcoin symbol with improved outline technique -->
        <path fill="rgba(255, 255, 255, 0.9)"
            d="M23 13.84c0.32,-2.12 -1.3,-3.26 -3.51,-4.02l0.72 -2.87 -1.75 -0.44 -0.7 2.8c-0.46,-0.11 -0.93,-0.22 -1.4,-0.33l0.7 -2.82 -1.75 -0.44 -0.72 2.87c-0.38,-0.09 -0.75,-0.17 -1.12,-0.26l0 -0.01 -2.41 -0.6 -0.47 1.87c0,0 1.3,0.3 1.27,0.32 0.71,0.18 0.84,0.65 0.82,1.02l-0.82 3.28c0.05,0.01 0.11,0.03 0.18,0.06 -0.06,-0.01 -0.12,-0.03 -0.19,-0.05l-1.14 4.59c-0.09,0.22 -0.31,0.54 -0.8,0.42 0.02,0.03 -1.27,-0.32 -1.27,-0.32l-0.87 2c0,0 2.28,0.57 2.28,0.57c0.42,0.11 0.84,0.22 1.25,0.32l-0.72 2.91 1.75 0.44 0.72 -2.88c0.48,0.13 0.94,0.25 1.39,0.36l-0.71 2.86 1.75 0.44 0.72 -2.9c2.98,0.56 5.23,0.34 6.17,-2.36c0.76,-2.17 -0.04,-3.43 -1.61,-4.24c1.14,-0.26 2,-1.02 2.23,-2.57l0 0zm-4 5.61c-0.54,2.17 -4.2,1 -5.39,0.7l0.96 -3.85c1.19,0.3 4.99,0.88 4.43,3.15zm0.54 -5.64c-0.49,1.98 -3.54,0.97 -4.53,0.73l0.87 -3.49c0.99,0.25 4.17,0.71 3.66,2.77l0 0z" />
        <path fill="none" stroke="rgba(0, 0, 0, 0.5)" stroke-width="0.4"
            d="M23 13.84c0.32,-2.12 -1.3,-3.26 -3.51,-4.02l0.72 -2.87 -1.75 -0.44 -0.7 2.8c-0.46,-0.11 -0.93,-0.22 -1.4,-0.33l0.7 -2.82 -1.75 -0.44 -0.72 2.87c-0.38,-0.09 -0.75,-0.17 -1.12,-0.26l0 -0.01 -2.41 -0.6 -0.47 1.87c0,0 1.3,0.3 1.27,0.32 0.71,0.18 0.84,0.65 0.82,1.02l-0.82 3.28c0.05,0.01 0.11,0.03 0.18,0.06 -0.06,-0.01 -0.12,-0.03 -0.19,-0.05l-1.14 4.59c-0.09,0.22 -0.31,0.54 -0.8,0.42 0.02,0.03 -1.27,-0.32 -1.27,-0.32l-0.87 2c0,0 2.28,0.57 2.28,0.57c0.42,0.11 0.84,0.22 1.25,0.32l-0.72 2.91 1.75 0.44 0.72 -2.88c0.48,0.13 0.94,0.25 1.39,0.36l-0.71 2.86 1.75 0.44 0.72 -2.9c2.98,0.56 5.23,0.34 6.17,-2.36c0.76,-2.17 -0.04,-3.43 -1.61,-4.24c1.14,-0.26 2,-1.02 2.23,-2.57l0 0zm-4 5.61c-0.54,2.17 -4.2,1 -5.39,0.7l0.96 -3.85c1.19,0.3 4.99,0.88 4.43,3.15zm0.54 -5.64c-0.49,1.98 -3.54,0.97 -4.53,0.73l0.87 -3.49c0.99,0.25 4.17,0.71 3.66,2.77l0 0z" />
    </g>
</svg>